<svg width="328" height="327" xmlns="http://www.w3.org/2000/svg" xmlns:xlink="http://www.w3.org/1999/xlink" xml:space="preserve" overflow="hidden"><g transform="translate(-350 -168)"><path d="M190.75 37.4688C190.75 52.5185 178.55 64.7188 163.5 64.7188 148.45 64.7188 136.25 52.5185 136.25 37.4688 136.25 22.419 148.45 10.2188 163.5 10.2188 178.55 10.2188 190.75 22.419 190.75 37.4688Z" fill="#0B76A0" transform="matrix(1.00306 0 0 1 350 168)"/><path d="M237.756 177.806 218.681 96.7375C218 94.0125 216.637 91.2875 214.594 89.2438 206.419 82.4313 196.881 77.6625 185.981 74.2562 178.488 72.8937 170.994 71.5312 163.5 71.5312 156.006 71.5312 148.512 72.8937 141.019 74.9375 130.119 77.6625 120.581 83.1125 112.406 89.925 110.363 91.9688 109 94.6937 108.319 97.4188L89.2438 178.488C89.2438 179.169 88.5625 180.531 88.5625 181.894 88.5625 189.387 94.6937 195.519 102.188 195.519 108.319 195.519 113.769 190.75 115.131 185.3L129.438 126.031 129.438 316.781 156.688 316.781 156.688 194.156 170.312 194.156 170.312 316.781 197.562 316.781 197.562 125.35 211.869 184.619C213.231 190.069 218.681 194.838 224.812 194.838 232.306 194.838 238.438 188.706 238.438 181.213 238.438 179.85 237.756 178.488 237.756 177.806Z" fill="#0B76A0" transform="matrix(1.00306 0 0 1 350 168)"/></g></svg>