<svg width="328" height="328" xmlns="http://www.w3.org/2000/svg" xmlns:xlink="http://www.w3.org/1999/xlink" xml:space="preserve" overflow="hidden"><g transform="translate(-613 -159)"><path d="M804.675 196.583C804.675 211.679 792.437 223.917 777.342 223.917 762.246 223.917 750.008 211.679 750.008 196.583 750.008 181.488 762.246 169.25 777.342 169.25 792.437 169.25 804.675 181.488 804.675 196.583Z" fill="#FC6DFF"/><path d="M851.825 335.983 827.225 251.25C826.542 247.833 824.492 245.1 821.758 243.733 813.558 238.267 803.992 234.85 793.058 232.117 787.592 231.433 782.808 230.75 777.342 230.75 771.875 230.75 767.092 231.433 761.625 232.117 750.692 234.167 741.125 238.267 732.925 243.733 730.192 245.783 728.142 247.833 727.458 251.25L702.175 335.983C700.125 343.5 704.225 351.017 711.742 353.067 713.108 353.75 714.475 353.75 715.842 353.75 721.992 353.75 727.458 349.65 728.825 344.183L750.008 272.433 750.008 296.35 724.725 381.083 743.175 381.083 743.175 476.75 770.508 476.75 770.508 381.083 784.175 381.083 784.175 476.75 811.508 476.75 811.508 381.083 829.958 381.083 804.675 296.35 804.675 272.433 825.858 344.183C827.908 350.333 833.375 353.75 838.842 353.75 840.208 353.75 841.575 353.75 842.942 353.067 849.775 351.017 853.875 343.5 851.825 335.983Z" fill="#FC6DFF"/></g></svg>